<?xml version="1.0" encoding="utf-8"?>
<!-- Generator: Adobe Illustrator 27.1.1, SVG Export Plug-In . SVG Version: 6.00 Build 0)  -->
<svg version="1.1" id="Layer_1" xmlns="http://www.w3.org/2000/svg" xmlns:xlink="http://www.w3.org/1999/xlink" x="0px" y="0px"
	 viewBox="0 0 490 420" style="enable-background:new 0 0 490 420;" xml:space="preserve" preserveAspectRatio="none">
<style type="text/css">
	.st0{fill:none;}
	.st1{fill:#FFFFFF;}
</style>
<g>
	<rect x="30" y="261.6" class="st0" width="399.4" height="9.1"/>
	<rect x="30" y="232.3" class="st0" width="399.4" height="9.1"/>
	<rect x="30" y="203" class="st0" width="399.4" height="9.1"/>
	<rect x="30" y="30" class="st0" width="430" height="149.1"/>
</g>
<path class="st1" d="M0,0v420h490V0H0z M30,203h399.4v9.1H30V203z M30,232.6v-0.3h399.4v0.3v8.8H30V232.6z M30,261.9v-0.3h399.4v0.3
	v8.8H30V261.9z M314.1,358.8H30.3v-9.1h283.8V358.8z M373.6,329.5H30.3v-9.1h343.3V329.5z M429.7,300.1H30.3V291h399.4V300.1z
	 M460,179.1H30V30h430V179.1z"/>
</svg>
