<?xml version="1.0" encoding="utf-8"?>
<!-- Generator: Adobe Illustrator 26.5.0, SVG Export Plug-In . SVG Version: 6.00 Build 0)  -->
<svg version="1.1" id="Layer_1" xmlns="http://www.w3.org/2000/svg" xmlns:xlink="http://www.w3.org/1999/xlink" x="0px" y="0px"
	 viewBox="0 0 490 420" style="enable-background:new 0 0 490 420;" xml:space="preserve" preserveAspectRatio="none">
<style type="text/css">
	.st0{opacity:0.5;fill:#FFFFFF;}
	.st1{fill:#FFFFFF;}
</style>
<path class="st0" d="M30,30v32.6h430V30H30z M50,50.2V43h104.9l0.1,7.2H50z M280.5,50.2h-53h-42V43h42h53h23.9l0.1,7.2H280.5z
	 M334.8,50.2V43h105l0.1,7.2H334.8z"/>
<path class="st1" d="M0,0v420h490V0H0z M50,380v-7.2h104.9l0.1,7.2H50z M50,347v-7.2h104.9l0.1,7.2H50z M50,314v-7.2h104.9l0.1,7.2
	H50z M50,281.1v-7.2h104.9l0.1,7.2H50z M50,248.1v-7.2h104.9l0.1,7.2H50z M50,215.1v-7.2h104.9l0.1,7.2H50z M50,182.1v-7.2h104.9
	l0.1,7.2H50z M50,149.2V142h104.9l0.1,7.2H50z M50,116.2V109h104.9l0.1,7.2H50z M50,83.2V76h104.9l0.1,7.2H50z M280.5,380h-53h-42
	v-7.2h42h53h23.9l0.1,7.2H280.5z M280.5,347h-53h-42v-7.2h42h53h23.9l0.1,7.2H280.5z M280.5,314h-53h-42v-7.2h42h53h23.9l0.1,7.2
	H280.5z M280.5,281.1h-53h-42v-7.2h42h53h23.9l0.1,7.2H280.5z M280.5,248.1h-53h-42v-7.2h42h53h23.9l0.1,7.2H280.5z M280.5,215.1
	h-53h-42v-7.2h42h53h23.9l0.1,7.2H280.5z M280.5,182.1h-53h-42v-7.2h42h53h23.9l0.1,7.2H280.5z M280.5,149.2h-53h-42V142h42h53h23.9
	l0.1,7.2H280.5z M280.5,116.2h-53h-42V109h42h53h23.9l0.1,7.2H280.5z M280.5,83.2h-53h-42V76h42h53h23.9l0.1,7.2H280.5z M334.8,380
	v-7.2h105l0.1,7.2H334.8z M334.8,347v-7.2h105l0.1,7.2H334.8z M334.8,314v-7.2h105l0.1,7.2H334.8z M334.8,281.1v-7.2h105l0.1,7.2
	H334.8z M334.8,248.1v-7.2h105l0.1,7.2H334.8z M334.8,215.1v-7.2h105l0.1,7.2H334.8z M334.8,182.1v-7.2h105l0.1,7.2H334.8z
	 M334.8,149.2V142h105l0.1,7.2H334.8z M334.8,116.2V109h105l0.1,7.2H334.8z M334.8,83.2V76h105l0.1,7.2H334.8z M460,62.6H30V30h430
	V62.6z"/>
</svg>
